0
SECTION
2
HEADER
9
$INSUNITS
70
4
9
$ACADVER
1
AC1014
9
$HANDSEED
5
FFFF
0
ENDSEC
0
SECTION
2
TABLES
0
TABLE
2
VPORT
5
8
100
AcDbSymbolTable
0
ENDTAB
0
TABLE
2
LTYPE
5
5
100
AcDbSymbolTable
0
LTYPE
5
14
100
AcDbSymbolTableRecord
100
AcDbLinetypeTableRecord
2
BYBLOCK
70
0
0
LTYPE
5
15
100
AcDbSymbolTableRecord
100
AcDbLinetypeTableRecord
2
BYLAYER
70
0
0
ENDTAB
0
TABLE
2
LAYER
5
2
100
AcDbSymbolTable
70
2
0
LAYER
5
50
100
AcDbSymbolTableRecord
100
AcDbLayerTableRecord
2
0
70
0
6
CONTINUOUS
0
ENDTAB
0
TABLE
2
STYLE
5
3
100
AcDbSymbolTable
70
1
0
STYLE
5
11
100
AcDbSymbolTableRecord
100
AcDbTextStyleTableRecord
2
STANDARD
70
0
0
ENDTAB
0
TABLE
2
VIEW
5
6
100
AcDbSymbolTable
70
0
0
ENDTAB
0
TABLE
2
UCS
5
7
100
AcDbSymbolTable
70
0
0
ENDTAB
0
TABLE
2
APPID
5
9
100
AcDbSymbolTable
70
2
0
APPID
5
12
100
AcDbSymbolTableRecord
100
AcDbRegAppTableRecord
2
ACAD
70
0
0
ENDTAB
0
TABLE
2
DIMSTYLE
5
A
100
AcDbSymbolTable
70
1
0
ENDTAB
0
TABLE
2
BLOCK_RECORD
5
1
100
AcDbSymbolTable
70
1
0
BLOCK_RECORD
5
1F
100
AcDbSymbolTableRecord
100
AcDbBlockTableRecord
2
*MODEL_SPACE
0
BLOCK_RECORD
5
1B
100
AcDbSymbolTableRecord
100
AcDbBlockTableRecord
2
*PAPER_SPACE
0
ENDTAB
0
ENDSEC
0
SECTION
2
BLOCKS
0
BLOCK
5
20
100
AcDbEntity
100
AcDbBlockBegin
2
*MODEL_SPACE
0
ENDBLK
5
21
100
AcDbEntity
100
AcDbBlockEnd
0
BLOCK
5
1C
100
AcDbEntity
100
AcDbBlockBegin
2
*PAPER_SPACE
0
ENDBLK
5
1D
100
AcDbEntity
100
AcDbBlockEnd
0
ENDSEC
0
SECTION
2
ENTITIES
0
LWPOLYLINE
5
100
100
AcDbEntity
8
0
100
AcDbPolyline
90
12
70
1
43
0.0
10
-12.738277180840905
20
12.813681958571227
10
-12.093519713945859
20
12.813681958571227
10
-12.093519713945861
20
13.019376130513383
10
-13.09351972884706
20
13.019376130513384
10
-13.09351972884706
20
12.019376115612225
10
-12.383034632834754
20
12.019376115612223
10
-12.383034632834754
20
11.280237501999562
10
-13.09351972884706
20
11.280237501999562
10
-13.093519728847063
20
11.019376100711064
10
-12.093519713945863
20
11.019376100711067
10
-12.093519713945867
20
12.290066778278458
10
-12.738277180840907
20
12.290066778278462
0
LWPOLYLINE
5
101
100
AcDbEntity
8
0
100
AcDbPolyline
90
8
70
1
43
0.0
10
-16.729884949971211
20
12.645377079191412
10
-16.366250111490569
20
12.645377079191412
10
-16.366250111490569
20
13.019376130513383
10
-17.093519788451864
20
13.019376130513386
10
-17.093519788451864
20
11.019376100711069
10
-16.366250111490572
20
11.019376100711069
10
-16.366250111490572
20
11.519376108161644
10
-16.729884949971215
20
11.519376108161643
0
LWPOLYLINE
5
102
100
AcDbEntity
8
0
100
AcDbPolyline
90
12
70
1
43
0.0
10
-15.093519758649464
20
12.519376123062806
10
-15.093519758649464
20
13.019376130513386
10
-15.861335473351104
20
13.019376130513383
10
-15.861335473351106
20
11.019376100711064
10
-15.093519758649464
20
11.019376100711069
10
-15.09351975864946
20
11.3363391284595
10
-15.593519766100062
20
11.336339128459496
10
-15.593519766100059
20
11.691649429372447
10
-15.093519758649464
20
11.691649429372449
10
-15.09351975864946
20
12.308767320431775
10
-15.593519766100066
20
12.308767320431775
10
-15.593519766100064
20
12.519376123062806
0
LWPOLYLINE
5
103
100
AcDbEntity
8
0
100
AcDbPolyline
90
8
70
1
43
0.0
10
-16.757935763201193
20
9.5193760783593309
10
-16.422351737950525
20
9.5193760783593309
10
-16.459752822257151
20
10.019376085809913
10
-17.093519788451861
20
10.01937608580991
10
-17.093519788451861
20
8.5193760634581714
10
-16.422351737950525
20
8.5193760634581732
10
-16.422351737950525
20
9.0193760709087503
10
-16.757935763201193
20
9.0193760709087485
0
LWPOLYLINE
5
104
100
AcDbEntity
8
0
100
AcDbPolyline
90
4
70
1
43
0.0
10
-13.355462824807066
20
11.019376100711064
10
-13.355462824807066
20
13.019376130513383
10
-13.593519736297663
20
13.019376130513386
10
-13.593519736297663
20
11.019376100711069
0
LWPOLYLINE
5
105
100
AcDbEntity
8
0
100
AcDbPolyline
90
12
70
1
43
0.0
10
-17.593519795902463
20
12.519376123062802
10
-17.593519795902463
20
13.019376130513383
10
-18.593519810803663
20
13.019376130513383
10
-18.593519810803663
20
11.019376100711064
10
-17.593519795902463
20
11.019376100711064
10
-17.593519795902463
20
11.3363391284595
10
-18.311106495435187
20
11.3363391284595
10
-18.311106495435187
20
11.729050513679073
10
-17.593519795902463
20
11.729050513679075
10
-17.593519795902463
20
12.25266569397184
10
-18.311106495435187
20
12.25266569397184
10
-18.311106495435187
20
12.519376123062802
0
LWPOLYLINE
5
106
100
AcDbEntity
8
0
100
AcDbPolyline
90
4
70
1
43
0.0
10
-13.84167692079323
20
11.019376100711064
10
-13.84167692079323
20
13.019376130513383
10
-14.103484510939616
20
13.019376130513383
10
-14.103484510939614
20
11.019376100711069
0
LWPOLYLINE
5
107
100
AcDbEntity
8
0
100
AcDbPolyline
90
9
70
1
43
0.0
10
-17.593519795902463
20
9.5273725319549047
10
-17.593519795902463
20
10.019376085809908
10
-18.593519810803659
20
10.01937608580991
10
-18.593519810803659
20
8.5193760634581697
10
-18.311106495435187
20
8.5193760634581714
10
-18.311106495435183
20
9.2693760746340423
10
-17.862293483755675
20
8.5193760634581697
10
-17.593519795902463
20
8.5193760634581714
10
-18.196722361298487
20
9.5273725319549047
0
ELLIPSE
5
108
100
AcDbEntity
8
0
100
AcDbEllipse
10
7.0285657752471753
20
-16.431240889205284
30
0
11
-4.5000000670553995
21
6.6490400140199207e-31
31
0.0
40
0.53033008588988861
41
0
42
6.2831853071795862
0
ELLIPSE
5
109
100
AcDbEntity
8
0
100
AcDbEllipse
10
-3.7805337907809111
20
-16.998113091275783
30
0
11
-3.0000000447035995
21
4.4326933426799063e-31
31
0.0
40
0.8660254037844034
41
0
42
6.2831853071795862
0
LINE
5
110
100
AcDbEntity
8
0
100
AcDbLine
10
-1.2582797501175591
20
17.879911520353772
30
0
11
-3.9197269040736469
21
22.331080067523583
31
0
0
SPLINE
5
111
100
AcDbEntity
8
0
100
AcDbSpline
70
1064
71
3
72
28
73
24
74
0
42
0.000000001
43
0.0000000001
44
0.0000000001
40
0
40
0
40
0
40
0
40
0.32034004868650234
40
0.32034004868650234
40
0.57751782247985795
40
0.57751782247985795
40
0.90016959195173119
40
0.90016959195173119
40
1.110867284317631
40
1.110867284317631
40
1.1429039611687295
40
1.1429039611687295
40
1.1941466111389996
40
1.1941466111389996
40
1.2402638702297408
40
1.2402638702297408
40
1.2807542681174995
40
1.2807542681174995
40
1.2975124079744706
40
1.2975124079744706
40
1.3402497101250155
40
1.3402497101250155
40
1.3768640971994581
40
1.3768640971994581
40
1.3768640971994581
40
1.3768640971994581
10
-3.9197269040736504
20
22.33108006752358
30
0
10
-3.0017013310374452
20
21.785712087316988
30
0
10
-2.0836757580012311
20
21.240344107110396
30
0
10
-0.42863408558285521
20
20.257139760134155
30
0
10
0.31963781621038301
20
19.837404458025937
30
0
10
1.9488512222854926
20
18.79757525081585
30
0
10
2.3340580577930581
20
18.352215384410794
30
0
10
3.153310229093309
20
17.234226645625881
30
0
10
3.4823097907844769
20
16.788660550036631
30
0
10
3.7556673297105725
20
16.220168102219105
30
0
10
3.7962495516352224
20
16.147375034388702
30
0
10
3.8996499572318566
20
15.957254160985537
30
0
10
3.9302146477231403
20
15.898327835665782
30
0
10
4.1097843508551701
20
15.447449200017719
30
0
10
4.1525750630106995
20
15.215768539289289
30
0
10
4.3566413207423782
20
14.835318790547136
30
0
10
4.4319260775863167
20
14.646334878770206
30
0
10
4.5819919496928385
20
14.403604020418864
30
0
10
4.6304365579072204
20
14.324324195641299
30
0
10
4.8134960910301494
20
13.954497332945696
30
0
10
4.8745316585137122
20
13.710244409801597
30
0
10
4.906198927100629
20
13.232773134259862
30
0
10
4.8850358385423664
20
13.056802209283166
30
0
10
4.878250295963511
20
12.98433029587699
30
0
0
SPLINE
5
112
100
AcDbEntity
8
0
100
AcDbSpline
70
1064
71
3
72
10
73
6
74
0
42
0.000000001
43
0.0000000001
44
0.0000000001
40
0
40
0
40
0
40
0
40
0.034858577695455709
40
0.034858577695455709
40
0.061352765081361435
40
0.061352765081361435
40
0.061352765081361435
40
0.061352765081361435
10
4.8782502959639018
20
12.984330295877031
30
0
10
4.8857095877830581
20
12.868374713104519
30
0
10
4.8869137858676481
20
12.751827259716823
30
0
10
4.8773388516293004
20
12.547542310572567
30
0
10
4.8714059580667701
20
12.459418606071925
30
0
10
4.866247548684921
20
12.371255427919262
30
0
0
SPLINE
5
113
100
AcDbEntity
8
0
100
AcDbSpline
70
1064
71
3
72
12
73
8
74
0
42
0.000000001
43
0.0000000001
44
0.0000000001
40
0
40
0
40
0
40
0
40
0.31352964121681959
40
0.31352964121681959
40
0.51209715865227656
40
0.51209715865227656
40
0.70602673839808816
40
0.70602673839808816
40
0.70602673839808816
40
0.70602673839808816
10
4.8662475486849299
20
12.371255427919262
30
0
10
5.6651111564389023
20
11.697424257338852
30
0
10
6.3477761733743243
20
10.875384776002829
30
0
10
7.1286977286895148
20
9.3622070507396131
30
0
10
7.3456962959446859
20
8.7402603092888445
30
0
10
7.5699780279761519
20
7.4547136820095048
30
0
10
7.5801495872469182
20
6.803178283994983
30
0
10
7.4742203909496396
20
6.1675312496945258
30
0
0
SPLINE
5
114
100
AcDbEntity
8
0
100
AcDbSpline
70
1064
71
3
72
12
73
8
74
0
42
0.000000001
43
0.0000000001
44
0.0000000001
40
0
40
0
40
0
40
0
40
0.28817540325377577
40
0.28817540325377577
40
0.42235844692726238
40
0.42235844692726238
40
0.55329612793112526
40
0.55329612793112526
40
0.55329612793112526
40
0.55329612793112526
10
7.4742203909496396
20
6.1675312496945276
30
0
10
8.2291933236529413
20
5.5736130789358054
30
0
10
8.9257241243302232
20
4.8733451497279843
30
0
10
9.6758052582627219
20
3.6825011722882897
30
0
10
9.8752084365294035
20
3.2779585845155248
30
0
10
10.153617776432853
20
2.4334269034824683
30
0
10
10.234428174671022
20
1.9991356826969742
30
0
10
10.24164556812817
20
1.5601331696009668
30
0
0
SPLINE
5
115
100
AcDbEntity
8
0
100
AcDbSpline
70
1064
71
3
72
20
73
16
74
0
42
0.000000001
43
0.0000000001
44
0.0000000001
40
0
40
0
40
0
40
0
40
0.25673392394925953
40
0.25673392394925953
40
0.49756976259480123
40
0.49756976259480123
40
0.80784525690723985
40
0.80784525690723985
40
1.0649221490476501
40
1.0649221490476501
40
1.3728547295864451
40
1.3728547295864451
40
1.7629658296465145
40
1.7629658296465145
40
2.1963762892456464
40
2.1963762892456464
40
2.1963762892456464
40
2.1963762892456464
10
10.24164556812817
20
1.5601331696009668
30
0
10
10.922470931113502
20
1.0416393898588006
30
0
10
11.53533261754661
20
0.4228272516325482
30
0
10
12.398810370051061
20
-0.99198494968839368
30
0
10
12.562835006389914
20
-1.5999860589124448
30
0
10
12.722864847424855
20
-2.6310475613457331
30
0
10
12.69958811877089
20
-3.2270564807899662
30
0
10
12.440761961604219
20
-4.2695965364796749
30
0
10
12.226781234807396
20
-4.7878640797122056
30
0
10
11.458454151026451
20
-5.9519119372397782
30
0
10
10.912271853226025
20
-6.5007238784121757
30
0
10
9.5504268881819776
20
-7.5591673538768713
30
0
10
8.6813222400293277
20
-8.0354699363449811
30
0
10
6.8067894395160167
20
-8.8342594971962445
30
0
10
5.7572346724043211
20
-9.1510129911543618
30
0
10
4.7076281540074572
20
-9.3797977473596674
30
0
0
LINE
5
116
100
AcDbEntity
8
0
100
AcDbLine
10
4.707628154007458
20
-9.3797977473596674
30
0
11
4.7076281539652687
21
-13.527465685371789
31
0
0
LINE
5
117
100
AcDbEntity
8
0
100
AcDbLine
10
4.7076281539652687
20
-13.527465685371789
30
0
11
2.6053328875307935
21
-13.527465685371787
31
2.7755575615628914e-16
0
LINE
5
118
100
AcDbEntity
8
0
100
AcDbLine
10
2.6053328875307935
20
-13.527465685371787
30
2.7755575615628914e-16
11
2.6053328875307891
21
-9.7277562406022682
31
2.7755575615628914e-16
0
SPLINE
5
119
100
AcDbEntity
8
0
100
AcDbSpline
70
1064
71
3
72
10
73
6
74
0
42
0.000000001
43
0.0000000001
44
0.0000000001
40
0
40
0
40
0
40
0
40
0.26958770884688038
40
0.26958770884688038
40
0.53751615394862784
40
0.53751615394862784
40
0.53751615394862784
40
0.53751615394862784
10
2.6053328875307979
20
-9.7277562406022646
30
0
10
1.7126827731465077
20
-9.8312159674630433
30
0
10
0.81049860366034565
20
-9.8824491790702389
30
0
10
-0.99382526559162798
20
-9.8810369024911644
30
0
10
-1.8992387490290508
20
-9.8290262391824239
30
0
10
-2.7923719577938311
20
-9.7250360417080959
30
0
0
LINE
5
120
100
AcDbEntity
8
0
100
AcDbLine
10
-2.7923719577938311
20
-9.7250360417080959
30
0
11
-2.7923719577937334
21
-13.527465685371791
31
0
0
LINE
5
121
100
AcDbEntity
8
0
100
AcDbLine
10
-2.7923719577937334
20
-13.527465685371791
30
0
11
-4.8946672242282094
21
-13.527465685371789
31
0
0
LINE
5
122
100
AcDbEntity
8
0
100
AcDbLine
10
-4.8946672242282094
20
-13.527465685371789
30
0
11
-4.8946672242282041
21
-9.3769197717375263
31
0
0
SPLINE
5
123
100
AcDbEntity
8
0
100
AcDbSpline
70
1064
71
3
72
20
73
16
74
0
42
0.000000001
43
0.0000000001
44
0.0000000001
40
0
40
0
40
0
40
0
40
0.58660172673345345
40
0.58660172673345345
40
0.95883085947669733
40
0.95883085947669733
40
1.1550699766891546
40
1.1550699766891546
40
1.2814319181049008
40
1.2814319181049008
40
1.3933191368570508
40
1.3933191368570508
40
1.5165230836775954
40
1.5165230836775954
40
1.6169505438206746
40
1.6169505438206746
40
1.6169505438206746
40
1.6169505438206746
10
-4.8946672242266676
20
-9.3769197717378621
30
0
10
-6.8053095155933541
20
-8.9612312009919641
30
0
10
-8.4288091936010936
20
-8.3201794476949527
30
0
10
-10.50777166366462
20
-7.0202906339126923
30
0
10
-11.256261030704007
20
-6.4009572423494561
30
0
10
-12.135816927400143
20
-5.2443095921168572
30
0
10
-12.515440627504724
20
-4.6441290462301179
30
0
10
-12.860180147592031
20
-3.346565867714093
30
0
10
-12.92474943283529
20
-2.7716637459739601
30
0
10
-12.763341981416234
20
-1.5919780977961251
30
0
10
-12.58053416113408
20
-1.063539279186213
30
0
10
-12.024964699377968
20
-0.028053152681000171
30
0
10
-11.639227498145065
20
0.46361488991886524
30
0
10
-10.84084967764888
20
1.2478283668029888
30
0
10
-10.343409318769044
20
1.6657354458640594
30
0
10
-9.6423503485359632
20
2.0990012849765574
30
0
0
SPLINE
5
124
100
AcDbEntity
8
0
100
AcDbSpline
70
1064
71
3
72
16
73
12
74
0
42
0.000000001
43
0.0000000001
44
0.0000000001
40
0
40
0
40
0
40
0
40
0.25672564436139095
40
0.25672564436139095
40
0.55425486245525246
40
0.55425486245525246
40
0.933211834534867
40
0.933211834534867
40
1.3635477142604286
40
1.3635477142604286
40
1.8068293971041225
40
1.8068293971041225
40
1.8068293971041225
40
1.8068293971041225
10
-9.6423503485359632
20
2.0990012849765529
30
0
10
-10.095281955133695
20
2.8250623694117136
30
0
10
-10.278104981777133
20
3.4399031065733778
30
0
10
-10.451853878232193
20
4.3923480612936769
30
0
10
-10.445732619519497
20
4.9219257724876728
30
0
10
-10.206998413859999
20
6.0790468216505031
30
0
10
-9.9427964435276284
20
6.5494028358266956
30
0
10
-9.4925538573241184
20
7.2036845709384032
30
0
10
-9.2036138993726624
20
7.5115884789780365
30
0
10
-8.5451911803781311
20
8.060847480689274
30
0
10
-8.1761700870958123
20
8.2977601544617592
30
0
10
-7.7894667603760981
20
8.4974084519649775
30
0
0
SPLINE
5
125
100
AcDbEntity
8
0
100
AcDbSpline
70
1064
71
3
72
12
73
8
74
0
42
0.000000001
43
0.0000000001
44
0.0000000001
40
0
40
0
40
0
40
0
40
0.21593282725296675
40
0.21593282725296675
40
0.38648231233099328
40
0.38648231233099328
40
0.5582880936679615
40
0.5582880936679615
40
0.5582880936679615
40
0.5582880936679615
10
-7.7894667603760981
20
8.4974084519649775
30
0
10
-7.8237093618304687
20
9.2163695532737915
30
0
10
-7.7184848925249439
20
9.9391495655996138
30
0
10
-7.28550558620217
20
11.151805054345768
30
0
10
-7.0132481993993689
20
11.645006938615996
30
0
10
-6.3208997979632864
20
12.542910264886142
30
0
10
-5.9056615130888135
20
12.939326358791412
30
0
10
-5.4429684499037023
20
13.270918479589739
30
0
0
SPLINE
5
126
100
AcDbEntity
8
0
100
AcDbSpline
70
1064
71
3
72
10
73
6
74
0
42
0.000000001
43
0.0000000001
44
0.0000000001
40
0
40
0
40
0
40
0
40
0.021071646415092543
40
0.021071646415092543
40
0.048570241616546952
40
0.048570241616546952
40
0.048570241616546952
40
0.048570241616546952
10
-5.4429684499036668
20
13.270918479589767
30
0
10
-5.4413113195558749
20
13.341137750081371
30
0
10
-5.4434779031696578
20
13.354702961321468
30
0
10
-5.4695038990789469
20
13.710641013136179
30
0
10
-5.4877033660497387
20
13.987043804221159
30
0
10
-5.4063966427801358
20
14.320787039079143
30
0
0
SPLINE
5
127
100
AcDbEntity
8
0
100
AcDbSpline
70
1064
71
3
72
20
73
16
74
0
42
0.000000001
43
0.0000000001
44
0.0000000001
40
0
40
0
40
0
40
0
40
0.057728750377364725
40
0.057728750377364725
40
0.09421861400689345
40
0.09421861400689345
40
0.20930175395644157
40
0.20930175395644157
40
0.30444878942973708
40
0.30444878942973708
40
0.34408424781812302
40
0.34408424781812302
40
0.37124954763517781
40
0.37124954763517781
40
0.408207030479104
40
0.408207030479104
40
0.408207030479104
40
0.408207030479104
10
-5.4063966427801446
20
14.320787039079118
30
0
10
-5.3608491001276271
20
14.507748013687326
30
0
10
-5.2808602352296008
20
14.724631221058262
30
0
10
-5.0233770226337082
20
15.114537605010954
30
0
10
-4.9231193617987223
20
15.227563369605686
30
0
10
-4.4514302024852892
20
15.795525024907096
30
0
10
-4.2446296706599806
20
15.987453189222403
30
0
10
-3.5260857916179056
20
16.717021432475349
30
0
10
-3.2174844166669381
20
16.971826654505019
30
0
10
-2.4216304527184906
20
17.30203783491346
30
0
10
-2.2549988846485203
20
17.349131111125324
30
0
10
-2.0552034285830612
20
17.410304983176598
30
0
10
-2.0385270887683582
20
17.419342488421776
30
0
10
-1.6774072134613327
20
17.635530512153494
30
0
10
-1.4667693124855319
20
17.755907648222173
30
0
10
-1.2582797501175591
20
17.879911520353772
30
0
0
CIRCLE
5
128
100
AcDbEntity
8
0
100
AcDbCircle
10
1.7763568394002505e-14
20
-3.3306690738754696e-15
30
0
40
25.209079140360728
0
CIRCLE
5
129
100
AcDbEntity
8
0
100
AcDbCircle
10
1.7763568394002505e-14
20
-3.3306690738754696e-15
30
0
40
25.209079140360728
0
LWPOLYLINE
5
130
100
AcDbEntity
8
0
100
AcDbPolyline
90
12
70
1
43
0.0
10
-13.093519728846278
20
11.28023750199959
10
-12.383034632833997
20
11.280237501999588
10
-12.383034632833985
20
12.019376115612266
10
-13.093519728846266
20
12.01937611561226
10
-13.093519728846248
20
13.019376130513427
10
-12.093519713945087
20
13.019376130513422
10
-12.093519713945087
20
12.813681958571259
10
-12.738277180840115
20
12.813681958571262
10
-12.738277180840122
20
12.290066778278501
10
-12.093519713945104
20
12.290066778278499
10
-12.093519713945122
20
11.019376100711103
10
-13.093519728846283
20
11.019376100711105
0
LWPOLYLINE
5
131
100
AcDbEntity
8
0
100
AcDbPolyline
90
8
70
1
43
0.0
10
-16.366250111489666
20
11.019376100711106
10
-17.093519788450926
20
11.019376100711105
10
-17.093519788450891
20
13.019376130513422
10
-16.366250111489631
20
13.019376130513427
10
-16.366250111489634
20
12.645377079191453
10
-16.729884949970266
20
12.645377079191453
10
-16.729884949970288
20
11.519376108161685
10
-16.366250111489659
20
11.519376108161685
0
LWPOLYLINE
5
132
100
AcDbEntity
8
0
100
AcDbPolyline
90
12
70
1
43
0.0
10
-15.593519766099176
20
11.691649429372486
10
-15.593519766099181
20
11.336339128459532
10
-15.093519758648601
20
11.336339128459535
10
-15.093519758648611
20
11.019376100711105
10
-15.861335473350223
20
11.019376100711099
10
-15.861335473350184
20
13.019376130513427
10
-15.093519758648572
20
13.019376130513427
10
-15.093519758648579
20
12.519376123062845
10
-15.593519766099163
20
12.519376123062846
10
-15.593519766099163
20
12.308767320431812
10
-15.093519758648583
20
12.30876732043181
10
-15.093519758648593
20
11.691649429372484
0
LWPOLYLINE
5
133
100
AcDbEntity
8
0
100
AcDbPolyline
90
8
70
1
43
0.0
10
-16.422351737949661
20
8.5193760634582052
10
-17.093519788450973
20
8.5193760634582052
10
-17.093519788450948
20
10.019376085809943
10
-16.459752822256259
20
10.019376085809949
10
-16.422351737949647
20
9.5193760783593646
10
-16.757935763200301
20
9.5193760783593611
10
-16.757935763200308
20
9.019376070908784
10
-16.422351737949651
20
9.019376070908784
0
LWPOLYLINE
5
134
100
AcDbEntity
8
0
100
AcDbPolyline
90
4
70
1
43
0.0
10
-13.593519736296866
20
11.019376100711099
10
-13.593519736296829
20
13.019376130513422
10
-13.355462824806247
20
13.019376130513422
10
-13.355462824806281
20
11.019376100711099
0
LWPOLYLINE
5
135
100
AcDbEntity
8
0
100
AcDbPolyline
90
12
70
1
43
0.0
10
-18.311106495434192
20
11.729050513679113
10
-18.311106495434203
20
11.336339128459541
10
-17.5935197959015
20
11.336339128459535
10
-17.593519795901514
20
11.019376100711099
10
-18.593519810802668
20
11.019376100711105
10
-18.593519810802633
20
13.019376130513427
10
-17.593519795901475
20
13.019376130513422
10
-17.593519795901482
20
12.519376123062845
10
-18.311106495434185
20
12.519376123062846
10
-18.311106495434185
20
12.252665693971878
10
-17.593519795901489
20
12.252665693971881
10
-17.593519795901496
20
11.729050513679111
0
LWPOLYLINE
5
136
100
AcDbEntity
8
0
100
AcDbPolyline
90
4
70
1
43
0.0
10
-14.103484510938797
20
11.019376100711099
10
-14.10348451093876
20
13.019376130513422
10
-13.841676920792391
20
13.019376130513422
10
-13.84167692079243
20
11.019376100711099
0
LWPOLYLINE
5
137
100
AcDbEntity
8
0
100
AcDbPolyline
90
9
70
1
43
0.0
10
-17.862293483754762
20
8.519376063458207
10
-18.311106495434245
20
9.2693760746340743
10
-18.311106495434245
20
8.5193760634582034
10
-18.593519810802714
20
8.5193760634582052
10
-18.593519810802693
20
10.019376085809943
10
-17.593519795901528
20
10.019376085809943
10
-17.593519795901535
20
9.5273725319549403
10
-18.196722361297539
20
9.5273725319549385
10
-17.593519795901553
20
8.5193760634582034
0
ELLIPSE
5
138
100
AcDbEntity
8
0
100
AcDbEllipse
10
7.028565775246669
20
-16.431240889205302
30
-2.7755575615628914e-16
11
-4.5000000670552254
21
6.6490400140196019e-31
31
0.0
40
0.53033008588991026
41
0
42
6.2831853071795862
0
ELLIPSE
5
139
100
AcDbEntity
8
0
100
AcDbEllipse
10
-3.7805337907810088
20
-16.998113091275808
30
0
11
-3.0000000447034836
21
4.4326933426797355e-31
31
0.0
40
0.86602540378443871
41
0
42
6.2831853071795862
0
SPLINE
5
140
100
AcDbEntity
8
0
100
AcDbSpline
70
1064
71
3
72
10
73
6
74
0
42
0.000000001
43
0.0000000001
44
0.0000000001
40
-0.54117060988861132
40
-0.54117060988861132
40
-0.54117060988861132
40
-0.54117060988861132
40
-0.26975003258428676
40
-0.26975003258428676
40
0
40
0
40
0
40
0
10
2.6053328875305848
20
-9.7277562406022735
30
0
10
1.7126827731463123
20
-9.8312159674630557
30
0
10
0.81049860366016802
20
-9.8824491790702478
30
0
10
-0.99382526559169904
20
-9.8810369024911733
30
0
10
-1.8992387490290863
20
-9.8290262391824328
30
0
10
-2.7923719577938311
20
-9.7250360417081048
30
0
0
LINE
5
141
100
AcDbEntity
8
0
100
AcDbLine
10
2.6053328875305137
20
-13.527465685371807
30
2.7755575615628914e-16
11
2.6053328875305848
21
-9.7277562406022735
31
0
0
LINE
5
142
100
AcDbEntity
8
0
100
AcDbLine
10
4.7076281539649045
20
-13.527465685371805
30
2.7755575615628914e-16
11
2.6053328875305137
21
-13.527465685371807
31
2.7755575615628914e-16
0
LINE
5
143
100
AcDbEntity
8
0
100
AcDbLine
10
4.7076281539649845
20
-9.3797977473688725
30
0
11
4.7076281539649045
21
-13.527465685371805
31
2.7755575615628914e-16
0
SPLINE
5
144
100
AcDbEntity
8
0
100
AcDbSpline
70
1064
71
3
72
20
73
16
74
0
42
0.000000001
43
0.0000000001
44
0.0000000001
40
-2.7729466089892205
40
-2.7729466089892205
40
-2.7729466089892205
40
-2.7729466089892205
40
-2.355932420307747
40
-2.355932420307747
40
-1.9579721956447069
40
-1.9579721956447069
40
-1.5361580376385684
40
-1.5361580376385684
40
-1.1976795686449471
40
-1.1976795686449471
40
-0.90049521245871667
40
-0.90049521245871667
40
-0.56047627633310482
40
-0.56047627633310482
40
0
40
0
40
0
40
0
10
10.241645568127877
20
1.5601331696009868
30
0
10
10.626671841879594
20
1.2669100630142782
30
2.7755575615628914e-16
10
10.990036345594909
20
0.94154608902422665
30
0
10
11.622795135382642
20
0.23872983466515896
30
0
10
11.895162540434123
20
-0.13505170677490241
30
0
10
12.349145558528205
20
-0.97091023913629226
30
2.7755575615628914e-16
10
12.573845525959548
20
-1.5278322145751266
30
0
10
12.719942531892627
20
-2.7617043731404589
30
2.7755575615628914e-16
10
12.683900234254226
20
-3.3210984611961547
30
2.7755575615628914e-16
10
12.419268300577908
20
-4.3257205737475912
30
0
10
12.175049041325323
20
-4.9382722096436975
30
0
10
11.101073784216302
20
-6.3689935934143822
30
0
10
10.344516115097457
20
-7.0004018023258618
30
0
10
8.1981931287576071
20
-8.352879332074977
30
-2.7755575615628914e-16
10
6.5330217643925614
20
-8.9819131831816446
30
0
10
4.7076281540071729
20
-9.3797977473596763
30
0
0
SPLINE
5
145
100
AcDbEntity
8
0
100
AcDbSpline
70
1064
71
3
72
12
73
8
74
0
42
0.000000001
43
0.0000000001
44
0.0000000001
40
-0.50753142666921391
40
-0.50753142666921391
40
-0.50753142666921391
40
-0.50753142666921391
40
-0.34094815618594032
40
-0.34094815618594032
40
-0.15422827030455338
40
-0.15422827030455338
40
0
40
0
40
0
40
0
10
7.4742203909495331
20
6.1675312496945542
30
0
10
7.9941084350568392
20
5.7585484335160233
30
0
10
8.4847666241495734
20
5.3003284035583578
30
0
10
9.379367908538665
20
4.2198751370931618
30
0
10
9.7195570607705228
20
3.6441434746339976
30
0
10
10.123878783451978
20
2.5814418217891557
30
-2.7755575615628914e-16
10
10.233194775903991
20
2.0741579412814657
30
0
10
10.241645568127877
20
1.5601331696009868
30
0
0
SPLINE
5
146
100
AcDbEntity
8
0
100
AcDbSpline
70
1064
71
3
72
12
73
8
74
0
42
0.000000001
43
0.0000000001
44
0.0000000001
40
-0.68292328533198188
40
-0.68292328533198188
40
-0.68292328533198188
40
-0.68292328533198188
40
-0.44703643267382354
40
-0.44703643267382354
40
-0.20875559535616897
40
-0.20875559535616897
40
0
40
0
40
0
40
0
10
4.8662475486850276
20
12.371255427919303
30
0
10
5.5073732789872043
20
11.8304741266489
30
0
10
6.073276006275119
20
11.19455638838347
30
0
10
6.9696772977816135
20
9.7691468734186309
30
2.7755575615628914e-16
10
7.2745334564706976
20
9.020783152026933
30
0
10
7.5676168981576541
20
7.5586785660507996
30
0
10
7.5886051699620083
20
6.8539175160865016
30
0
10
7.4742203909495331
20
6.1675312496945542
30
0
0
SPLINE
5
147
100
AcDbEntity
8
0
100
AcDbSpline
70
1064
71
3
72
10
73
6
74
0
42
0.000000001
43
0.0000000001
44
0.0000000001
40
-0.061352765081361435
40
-0.061352765081361435
40
-0.061352765081361435
40
-0.061352765081361435
40
-0.02649418738590573
40
-0.02649418738590573
40
0
40
0
40
0
40
0
10
4.8782502959640084
20
12.984330295877072
30
0
10
4.8857095877831735
20
12.868374713104558
30
0
10
4.8869137858677636
20
12.751827259716864
30
0
10
4.8773388516294069
20
12.547542310572606
30
0
10
4.8714059580668767
20
12.45941860607196
30
0
10
4.8662475486850276
20
12.371255427919303
30
0
0
SPLINE
5
148
100
AcDbEntity
8
0
100
AcDbSpline
70
1064
71
3
72
24
73
20
74
0
42
0.000000001
43
0.0000000001
44
0.0000000001
40
-1.3045423390387527
40
-1.3045423390387527
40
-1.3045423390387527
40
-1.3045423390387527
40
-0.73850744044934724
40
-0.73850744044934724
40
-0.28812069289950998
40
-0.28812069289950998
40
-0.17650474205513547
40
-0.17650474205513547
40
-0.085820524604710943
40
-0.085820524604710943
40
-0.070865682020117032
40
-0.070865682020117032
40
-0.061131449615549199
40
-0.061131449615549199
40
-0.050373748079707528
40
-0.050373748079707528
40
-0.036085402065770315
40
-0.036085402065770315
40
0
40
0
40
0
40
0
10
-3.9197269040730287
20
22.33108006752364
30
-2.7755575615628914e-16
10
-2.5449346641782711
20
21.514362441025057
30
0
10
-1.1701424242835134
20
20.697644814526477
30
0
10
1.2985544618194567
20
19.231075391995528
30
2.7755575615628914e-16
10
1.8461648255925223
20
18.905758574247852
30
0
10
2.6527846514165798
20
17.919145853097898
30
0
10
3.3056643592910451
20
17.083701827065877
30
0
10
3.7990682290489097
20
16.165759811833261
30
0
10
4.0127292864658148
20
15.744603924470283
30
2.7755575615628914e-16
10
4.1744009674697935
20
15.224976472123327
30
0
10
4.1913297092183743
20
15.148548683705098
30
0
10
4.2485640359936649
20
15.034969201338875
30
0
10
4.2916585496635662
20
14.961872776971688
30
0
10
4.432733917202567
20
14.67677877929448
30
-2.7755575615628914e-16
10
4.5086501529037815
20
14.52776138290147
30
0
10
4.7058422302544489
20
14.192699877581401
30
2.7755575615628914e-16
10
4.7791109709276647
20
14.014998239135279
30
2.7755575615628914e-16
10
4.9357586026465317
20
13.461584553536831
30
0
10
4.8894635020842259
20
13.10409116887044
30
2.7755575615628914e-16
10
4.8782502959636176
20
12.984330295877026
30
0
0
LINE
5
149
100
AcDbEntity
8
0
100
AcDbLine
10
-1.258279750117115
20
17.879911520353822
30
0
11
-3.9197269040730287
21
22.33108006752364
31
-2.7755575615628914e-16
0
SPLINE
5
150
100
AcDbEntity
8
0
100
AcDbSpline
70
1064
71
3
72
20
73
16
74
0
42
0.000000001
43
0.0000000001
44
0.0000000001
40
-1.1344769846596798
40
-1.1344769846596798
40
-1.1344769846596798
40
-1.1344769846596798
40
-0.94990067199736439
40
-0.94990067199736439
40
-0.83314054457174602
40
-0.83314054457174602
40
-0.61122090075559465
40
-0.61122090075559465
40
-0.31717080134514553
40
-0.31717080134514553
40
-0.084133256629125408
40
-0.084133256629125408
40
-0.040393318671336789
40
-0.040393318671336789
40
0
40
0
40
0
40
0
10
-5.4063966427795984
20
14.320787039079157
30
-2.7755575615628914e-16
10
-5.3275821438201687
20
14.644300332674987
30
0
10
-5.1808960060799691
20
14.885701295780681
30
2.7755575615628914e-16
10
-5.0038000069717992
20
15.132989138704467
30
2.7755575615628914e-16
10
-4.9371283043910363
20
15.211419694594941
30
-2.7755575615628914e-16
10
-4.6409845341852396
20
15.566181350479633
30
0
10
-4.5610956526504687
20
15.667108297446614
30
-2.7755575615628914e-16
10
-4.2200025708916478
20
16.031284780745025
30
0
10
-3.8403391575728829
20
16.409132788805966
30
0
10
-3.4866530601596502
20
16.728468906768331
30
0
10
-3.0965609184085618
20
17.058690334292272
30
2.7755575615628914e-16
10
-2.2773635126317426
20
17.345423603496123
30
0
10
-2.1364625709600737
20
17.365000119598125
30
-2.7755575615628914e-16
10
-1.9075546165108292
20
17.4961733214558
30
0
10
-1.3740023919274069
20
17.811082867663536
30
0
10
-1.258279750117115
20
17.879911520353819
30
0
0
SPLINE
5
151
100
AcDbEntity
8
0
100
AcDbSpline
70
1064
71
3
72
10
73
6
74
0
42
0.000000001
43
0.0000000001
44
0.0000000001
40
-0.17554130661948078
40
-0.17554130661948078
40
-0.17554130661948078
40
-0.17554130661948078
40
-0.082990182730450404
40
-0.082990182730450404
40
0
40
0
40
0
40
0
10
-5.4429684499031383
20
13.270918479589806
30
0
10
-5.4386372277040262
20
13.454449765202705
30
0
10
-5.4552914518775797
20
13.47242156942797
30
0
10
-5.4728392478374266
20
13.82034539017174
30
-2.7755575615628914e-16
10
-5.4718752624092692
20
14.052014108004585
30
0
10
-5.406396642779594
20
14.320787039079184
30
-2.7755575615628914e-16
0
SPLINE
5
152
100
AcDbEntity
8
0
100
AcDbSpline
70
1064
71
3
72
12
73
8
74
0
42
0.000000001
43
0.0000000001
44
0.0000000001
40
-0.53369063925382143
40
-0.53369063925382143
40
-0.53369063925382143
40
-0.53369063925382143
40
-0.38494767458265916
40
-0.38494767458265916
40
-0.22790975331573843
40
-0.22790975331573843
40
0
40
0
40
0
40
0
10
-7.7894667603755741
20
8.4974084519650166
30
0
10
-7.815527631797039
20
9.0445851272892899
30
0
10
-7.7608254297665002
20
9.5943768155051981
30
0
10
-7.4840594425308771
20
10.685673230363593
30
0
10
-7.2665526226806465
20
11.180401387986528
30
0
10
-6.5925871515071854
20
12.271005900825266
30
0
10
-6.0604678439479009
20
12.828383352191373
30
0
10
-5.4429684499031739
20
13.270918479589779
30
0
0
SPLINE
5
153
100
AcDbEntity
8
0
100
AcDbSpline
70
1064
71
3
72
16
73
12
74
0
42
0.000000001
43
0.0000000001
44
0.0000000001
40
-1.0510227054680956
40
-1.0510227054680956
40
-1.0510227054680956
40
-1.0510227054680956
40
-0.92449194423273318
40
-0.92449194423273318
40
-0.7565329979294424
40
-0.7565329979294424
40
-0.42460349082834992
40
-0.42460349082834992
40
-0.20825602814775931
40
-0.20825602814775931
40
0
40
0
40
0
40
0
10
-9.6423503485354765
20
2.0990012849765707
30
0
10
-9.8592726387223664
20
2.4467333287487989
30
0
10
-10.042416520105819
20
2.8153195833001741
30
0
10
-10.356716024475361
20
3.7158172780056873
30
0
10
-10.40335970518135
20
4.1236716480862681
30
0
10
-10.446332720583476
20
4.8854555617867392
30
0
10
-10.380631462575028
20
5.3969091853590054
30
0
10
-10.117053242860358
20
6.1910252187551338
30
2.7755575615628914e-16
10
-9.9042437495941016
20
6.699180238033958
30
0
10
-8.9766696002598501
20
7.766435359598912
30
0
10
-8.4062967808229985
20
8.1789496880442432
30
2.7755575615628914e-16
10
-7.7894667603755652
20
8.4974084519650113
30
0
0
SPLINE
5
154
100
AcDbEntity
8
0
100
AcDbSpline
70
1064
71
3
72
20
73
16
74
0
42
0.000000001
43
0.0000000001
44
0.0000000001
40
-2.3567393362604454
40
-2.3567393362604454
40
-2.3567393362604454
40
-2.3567393362604454
40
-1.768461739970288
40
-1.768461739970288
40
-1.3246158774623322
40
-1.3246158774623322
40
-1.0598541384675013
40
-1.0598541384675013
40
-0.82886987249070376
40
-0.82886987249070376
40
-0.60161402389436303
40
-0.60161402389436303
40
-0.33587391307417913
40
-0.33587391307417913
40
0
40
0
40
0
40
0
10
-4.8946672242265787
20
-9.3769197717378709
30
0
10
-6.0977065429770727
20
-9.1151807234491304
30
-2.7755575615628914e-16
10
-7.3090307436096014
20
-8.7370524102104969
30
0
10
-9.2600320233932578
20
-7.824833185898191
30
0
10
-10.222188292551188
20
-7.2706226883570224
30
0
10
-11.535985881806777
20
-6.0510012222055565
30
0
10
-11.974045972769067
20
-5.5231120138513319
30
0
10
-12.572925824048351
20
-4.4203795867549465
30
0
10
-12.762869309946364
20
-3.8586429116964496
30
0
10
-12.91482385545609
20
-2.7096595559908652
30
0
10
-12.877358380416343
20
-2.148976597949821
30
0
10
-12.549822635037916
20
-0.94200585690359162
30
0
10
-12.230113403680924
20
-0.34104340284770274
30
0
10
-11.3023590448223
20
0.87262131654611941
30
0
10
-10.594729287220224
20
1.5104156202283681
30
0
10
-9.64235034853548
20
2.0990012849765707
30
0
0
LINE
5
155
100
AcDbEntity
8
0
100
AcDbLine
10
-4.8946672242281952
20
-13.527465685371807
30
0
11
-4.8946672242265787
21
-9.3769197717378709
31
0
0
LINE
5
156
100
AcDbEntity
8
0
100
AcDbLine
10
-2.7923719577938044
20
-13.527465685371805
30
0
11
-4.8946672242281952
21
-13.527465685371807
31
0
0
LINE
5
157
100
AcDbEntity
8
0
100
AcDbLine
10
-2.7923719577938311
20
-9.7250360417081048
30
0
11
-2.7923719577938044
21
-13.527465685371805
31
0
0
CIRCLE
5
158
100
AcDbEntity
8
0
100
AcDbCircle
10
8.8817841970012523e-14
20
9.9920072216264089e-15
30
0
40
25.209079140359755
0
ENDSEC
0
SECTION
2
OBJECTS
0
DICTIONARY
5
C
100
AcDbDictionary
3
ACAD_GROUP
350
D
3
ACAD_MLINESTYLE
350
17
0
DICTIONARY
5
D
100
AcDbDictionary
0
DICTIONARY
5
1A
330
C
100
AcDbDictionary
0
DICTIONARY
5
17
100
AcDbDictionary
0
ENDSEC
0
EOF
